# Blender v3.0.1 OBJ File: 'Ground2.blend'
# www.blender.org
g Ground_low_Cube.073
v -0.127483 0.005501 -0.554020
v 0.341645 -0.000360 -0.716390
v -0.274796 -0.002788 0.066232
v -0.154644 0.001010 0.402675
v -0.694161 0.000515 0.241579
v -0.652386 0.002201 0.563828
v -0.362360 -0.006803 0.523913
v -0.411017 0.009417 0.368736
v -0.661956 -0.183168 0.296298
v 0.693141 -0.123854 0.685530
v 0.026836 0.007994 0.316218
v 0.085310 0.003751 0.034538
v 0.233381 0.000323 -0.170635
v 0.332788 0.003719 0.431118
v 0.401125 -0.000111 0.213995
v 0.495505 -0.006415 0.070966
v -0.720672 -0.088235 0.468638
v 0.103193 -0.007689 0.683040
v -0.720036 -0.023548 0.626274
v 0.699954 -0.160234 0.469688
v 0.702483 -0.007797 -0.064805
v -0.449096 -0.007078 -0.734631
v 0.680530 -0.001620 0.694627
v 0.434098 -0.002643 -0.363688
v -0.487197 0.001906 -0.345037
v -0.490523 0.010124 -0.565381
v -0.176763 0.001863 -0.235161
v -0.714738 -0.086552 0.130318
v 0.090875 0.002323 -0.498917
v 0.301195 0.004349 -0.521093
v -0.672559 -0.002430 -0.033426
v -0.707367 -0.086318 -0.178329
v 0.107833 0.003061 0.512965
v -0.673039 -0.025917 -0.731289
v 0.726240 -0.027038 -0.720785
v 0.578296 0.009388 -0.524009
v 0.727772 -0.098731 0.365923
v 0.073712 -0.012278 -0.723538
v 0.370077 -0.236988 -0.695611
v 0.667077 -0.557873 0.204595
v -0.665114 -0.129646 0.654394
v 0.251511 -0.072879 0.706519
v 0.718009 -0.026377 -0.481762
v 0.235732 -0.279019 0.615184
v 0.544655 -1.000026 -0.696076
v -0.488649 -0.190378 -0.704079
v 0.734843 -0.071279 0.052734
v 0.701994 -0.001936 0.400162
v -0.223032 -0.022879 -0.730390
v 0.654345 -0.978123 -0.481569
v -0.442489 -0.997275 -0.695386
v -0.086221 -0.643044 -0.682316
v 0.688450 -0.165376 -0.542307
v 0.011906 -0.238947 -0.698801
v -0.236855 -0.128787 0.692605
v 0.717297 -0.110245 -0.164498
v -0.126129 -0.985105 0.653054
v 0.477398 -0.990953 0.627801
v 0.629269 -0.967523 0.548457
v 0.359630 -0.080797 -0.740267
v 0.666245 -0.115879 -0.704800
v 0.650125 -0.455964 0.595194
v 0.612219 -0.390296 -0.660142
v 0.664284 -0.615788 -0.579022
v 0.511202 -0.825570 -0.691658
v 0.685060 -1.007855 0.038010
v 0.196420 -1.007108 -0.709453
v 0.674014 -0.684818 -0.127983
v 0.413705 -0.850259 0.656879
v 0.527270 -0.104118 0.715659
v -0.075327 -0.732071 0.661752
v -0.599302 -0.963457 0.609760
v 0.436710 -0.559563 0.666667
v 0.002383 -0.100271 0.702920
v -0.343601 -0.003003 0.676270
v -0.523396 -0.516336 0.563871
v -0.547553 -0.713698 0.605000
v -0.666053 -0.746401 0.471761
v -0.637725 -0.997952 0.061910
v -0.433627 -0.111117 0.681995
v -0.655753 -0.181247 -0.242933
v -0.648855 -0.473492 -0.258862
v -0.622444 -0.404729 0.475822
v -0.571157 -0.994700 -0.380396
v -0.643389 -0.826702 -0.235324
v -0.703115 -0.025794 -0.488240
v -0.649546 -0.222717 -0.658897
v -0.619254 -0.669076 -0.666094
v -0.629159 -0.936947 -0.611379
v -0.649170 -0.993450 0.503305
vt 0.296080 0.378906
vt 0.289256 0.339397
vt 0.330060 0.342311
vt 0.061281 0.088765
vt 0.000320 0.142346
vt 0.000035 0.004810
vt 0.337354 0.070082
vt 0.338595 0.000000
vt 0.390411 0.054424
vt 0.287907 0.100392
vt 0.204164 0.115028
vt 0.251008 0.068057
vt 0.147769 0.051557
vt 0.113289 0.073423
vt 0.070253 0.000967
vt 0.306597 0.444559
vt 0.180996 0.002849
vt 0.289785 0.034419
vt 0.379214 0.002831
vt 0.369306 0.078729
vt 0.492704 0.668977
vt 0.428868 0.672178
vt 0.424806 0.645590
vt 0.328290 0.479823
vt 0.351989 0.632735
vt 0.422968 0.593061
vt 0.371039 0.205132
vt 0.337400 0.180843
vt 0.358828 0.153143
vt 0.337354 0.662344
vt 0.627302 0.610897
vt 0.660161 0.451372
vt 0.665843 0.600062
vt 0.983817 0.408667
vt 0.942193 0.342898
vt 1.000000 0.342537
vt 0.295035 0.289134
vt 0.335552 0.279982
vt 0.333829 0.333281
vt 0.293901 0.202624
vt 0.281725 0.150382
vt 0.335171 0.155424
vt 0.334600 0.091596
vt 0.145573 0.235026
vt 0.242592 0.287385
vt 0.167593 0.330182
vt 0.102003 0.334144
vt 0.072924 0.266174
vt 0.065961 0.204966
vt 0.335546 0.226112
vt 0.000000 0.248783
vt 0.036210 0.253903
vt 0.025438 0.322809
vt 0.868744 0.364140
vt 0.884540 0.396370
vt 0.768223 0.337120
vt 0.833676 0.337423
vt 0.795262 0.365275
vt 0.889971 0.493600
vt 0.886352 0.611228
vt 0.714559 0.474035
vt 0.563397 0.666285
vt 0.508270 0.593368
vt 0.275818 0.339397
vt 0.330060 0.586236
vt 0.294095 0.607766
vt 0.288152 0.560917
vt 0.987984 0.557588
vt 0.087318 0.162126
vt 0.040822 0.141984
vt 0.714719 0.367033
vt 0.670580 0.382503
vt 0.676811 0.346143
vt 0.717568 0.586849
vt 0.154659 0.149410
vt 0.217761 0.212983
vt 0.340971 0.337120
vt 0.341783 0.280211
vt 0.388055 0.295478
vt 0.280395 0.000931
vt 0.337354 0.000000
vt 0.371038 0.333942
vt 0.297581 0.503917
vt 0.691370 0.338541
vt 0.237415 0.448428
vt 0.323159 0.675887
vt 0.287902 0.662903
vt 0.010325 0.338626
vt 0.756153 0.398975
vt 0.047987 0.339397
vt 0.463033 0.324972
vt 0.670580 0.666446
vt 0.617172 0.672178
vt 0.538179 0.306819
vt 0.659405 0.285681
vt 0.666543 0.337120
vt 0.365916 0.540990
vt 0.685362 0.578591
vt 0.092871 0.635327
vt 0.158446 0.629399
vt 0.195258 0.652857
vt 0.562970 0.199777
vt 0.685770 0.660734
vt 0.178097 0.349852
vt 0.144040 0.400803
vt 0.007323 0.355191
vt 0.086780 0.522894
vt 0.533084 0.458837
vt 0.047088 0.406502
vt 0.009658 0.647849
vt 0.002406 0.535186
vt 0.000000 0.391425
vt 0.391411 0.396590
vt 0.354495 0.464882
vt 0.384039 0.338436
vt 0.707935 0.324261
vt 0.680763 0.273396
vt 0.671242 0.150409
vt 0.522068 0.119872
vt 0.671242 0.162050
vt 0.489813 0.026313
vt 0.660255 0.040380
vt 0.619132 0.341898
vt 0.466968 0.337120
vt 0.972203 0.243931
vt 0.986813 0.297701
vt 0.942987 0.319495
vt 0.986813 0.033338
vt 0.861557 0.000000
vt 0.974337 0.007773
vt 0.790949 0.325946
vt 0.717978 0.008886
vt 0.986085 0.138460
vt 0.682072 0.028093
vt 0.711413 0.669412
vt 0.816525 0.669412
vt 0.921674 0.667809
vt 0.976496 0.646688
vt 0.663582 0.361587
vn 0.1720 -0.0554 0.9835
vn -0.0112 0.9993 0.0350
vn 0.9972 0.0191 0.0727
vn 0.0317 0.9993 0.0176
vn 0.0237 0.9993 -0.0284
vn -0.0083 0.2128 0.9771
vn -0.0321 0.9984 0.0460
vn 0.9947 0.1016 0.0143
vn 0.9349 0.1325 0.3292
vn 0.0128 0.2872 -0.9578
vn -0.0223 0.2935 0.9557
vn 0.0802 -0.2690 -0.9598
vn 0.9579 0.2590 -0.1238
vn 0.0089 0.2864 -0.9581
vn 0.0113 0.9999 0.0071
vn -0.2698 -0.0028 -0.9629
vn -0.9794 -0.1615 -0.1211
vn -0.0850 0.9890 -0.1213
vn 0.0315 0.9972 -0.0672
vn 0.0650 0.9978 -0.0106
vn -0.0023 0.9999 0.0126
vn 0.0035 0.9999 -0.0104
vn -0.0111 0.9989 -0.0453
vn 0.0360 0.9991 -0.0241
vn -0.0321 0.9894 -0.1418
vn 0.0271 0.9992 -0.0283
vn -0.9003 -0.4247 -0.0953
vn -0.9620 -0.2728 0.0128
vn 0.0855 -0.2321 -0.9689
vn -0.9435 0.3221 -0.0776
vn -0.9491 0.3113 0.0478
vn -0.8844 -0.4662 -0.0215
vn 0.0197 0.9950 0.0978
vn -0.9992 -0.0130 0.0371
vn 0.0271 -0.1157 -0.9929
vn 0.0178 0.9856 -0.1682
vn -0.1526 0.9875 0.0391
vn 0.0102 0.9997 0.0217
vn -0.0455 0.0906 0.9948
vn -0.9978 -0.0196 -0.0631
vn -0.0222 0.9992 0.0342
vn 0.9691 0.2428 0.0432
vn 0.9224 -0.3862 -0.0052
vn -0.0086 0.9999 0.0098
vn -0.9339 -0.2850 0.2158
vn -0.8926 -0.4159 0.1743
vn -0.0486 0.9986 -0.0189
vn -0.9908 0.1270 -0.0462
vn 0.0054 0.9997 0.0228
vn 0.0182 0.9998 -0.0113
vn -0.0173 0.9998 0.0098
vn -0.0375 0.9993 0.0021
vn -0.0198 0.9996 -0.0192
vn 0.9744 -0.2221 0.0342
vn 0.2463 0.9692 0.0058
vn 0.7716 -0.5714 -0.2795
vn -0.0435 0.9985 -0.0331
vn -0.0016 0.9999 -0.0126
vn 0.0189 0.9998 -0.0117
vn -0.0754 0.2871 0.9549
vn -0.9969 -0.0670 -0.0403
vn -0.8443 0.5252 0.1067
vn -0.0755 -0.3991 0.9138
vn -0.1743 0.9844 -0.0221
vn 0.0271 0.9993 -0.0262
vn 0.0247 0.9997 0.0011
vn 0.9931 0.1125 0.0320
vn -0.1393 0.1857 0.9727
vn 0.0204 0.9998 0.0058
vn -0.1295 0.1596 0.9787
vn -0.0910 0.9515 0.2938
vn 0.2573 0.9657 -0.0335
vn -0.0589 0.9980 0.0219
vn 0.8992 -0.4371 -0.0180
vn 0.0202 0.9978 0.0636
vn -0.0040 -0.1489 -0.9888
vn -0.0309 0.9995 -0.0012
vn -0.9633 -0.0939 0.2516
vn -0.0131 0.9992 0.0375
vn 0.0671 0.9889 -0.1326
vn 0.0153 0.9999 0.0000
vn 0.8944 0.4472 -0.0047
vn -0.5738 0.7585 -0.3089
vn -0.9532 -0.2267 -0.1999
vn 0.0146 0.9999 -0.0003
vn -0.0980 0.9942 -0.0445
vn 0.0123 0.9998 0.0133
vn 0.9510 -0.3078 -0.0277
vn -0.0048 0.9999 0.0139
vn -0.0418 0.2530 0.9666
vn 0.0433 0.9950 0.0904
vn -0.9098 0.4145 -0.0214
vn 0.0142 0.9998 -0.0132
vn -0.0009 -0.1642 -0.9864
vn 0.8871 -0.1424 -0.4391
vn 0.0057 0.9999 -0.0126
vn -0.0163 0.9978 -0.0636
vn -0.0138 0.1172 0.9930
vn -0.9421 -0.2960 -0.1579
vn 0.0381 -0.1678 -0.9851
vn 0.9552 -0.2202 -0.1976
vn 0.9810 -0.1879 -0.0475
vn -0.0339 0.9975 0.0621
vn 0.0019 0.9999 0.0117
vn 0.0710 0.9940 -0.0836
vn -0.7550 0.0886 0.6497
vn -0.4844 0.2349 0.8427
vn -0.9827 -0.1849 -0.0120
vn -0.9997 -0.0229 -0.0126
vn -0.9989 -0.0257 0.0383
vn 0.9834 -0.0843 -0.1608
vn -0.0554 -0.5497 0.8335
vn -0.7567 0.1688 0.6316
vn 0.3591 -0.0994 0.9280
vn 0.0442 -0.3442 0.9378
vn -0.1238 0.1852 0.9749
vn -0.1082 0.2155 0.9705
vn -0.0569 0.1406 0.9884
vn 0.0091 -0.0430 -0.9990
vn 0.0064 -0.0423 -0.9991
vn -0.6968 -0.0541 0.7152
vn -0.0755 -0.2636 0.9617
vn 0.0120 -0.4279 0.9038
vn -0.1069 -0.3553 0.9286
vn 0.0728 -0.1142 -0.9908
vn 0.1714 0.2953 0.9399
vn 0.4205 -0.0638 0.9050
vn -0.1175 0.0433 0.9921
vn -0.0918 -0.0158 0.9957
vn 0.0016 -0.0347 0.9994
vn 0.0018 -0.0338 0.9994
vn 0.0393 -0.1852 0.9819
vn 0.4822 0.1145 -0.8685
vn 0.0316 -0.4069 0.9129
vn 0.3314 -0.9406 -0.0734
vn 0.9962 -0.0720 0.0483
vn 0.9990 -0.0346 -0.0269
vn 0.9983 0.0039 -0.0588
vn 0.9731 0.2298 0.0142
vn 0.9974 -0.0457 0.0552
vn -0.0268 -0.0718 -0.9971
vn 0.9952 -0.0954 0.0197
vn 0.9882 -0.1430 0.0553
vn 0.1398 -0.2767 0.9507
vn 0.9993 0.0375 0.0065
vn 0.9880 -0.1335 0.0777
vn 0.9941 -0.0005 0.1087
vn -0.0338 0.0708 -0.9969
vn -0.0211 0.0580 -0.9981
vn -0.1229 -0.2804 -0.9520
vn 0.6786 -0.1048 -0.7270
vn 0.0093 0.0815 -0.9966
vn -0.3609 -0.9220 -0.1399
vn 0.0095 -0.1110 -0.9938
vn 0.0069 -0.1659 -0.9861
vn 0.0060 0.0708 -0.9975
vn -0.0711 -0.9509 0.3012
vn 0.0173 -0.9968 0.0779
vn 0.0093 -0.9999 -0.0060
vn 0.4599 0.0248 0.8876
vn -0.0074 -0.9999 -0.0093
vn -0.0179 -0.9996 0.0223
vn -0.0064 -0.9969 0.0779
vn 0.0377 0.0325 -0.9988
vn 0.2021 -0.9743 0.0991
vn 0.0011 -0.9999 0.0102
vn -0.9047 -0.0074 0.4259
vn -0.9971 -0.0714 -0.0251
vn -0.9482 -0.2827 -0.1448
vn -0.9970 -0.0739 -0.0236
vn -0.0153 -0.9999 0.0019
vn -0.8689 -0.4949 -0.0118
vn -0.1849 -0.3586 -0.9150
vn -0.8781 -0.4671 0.1037
vn -0.9986 0.0276 -0.0459
vn -0.4482 -0.1630 -0.8789
s off
f 70/1/1 10/2/1 23/3/1
f 14/4/2 18/5/2 23/6/2
f 48/7/3 23/8/3 20/9/3
f 30/10/4 13/11/4 24/12/4
f 16/13/5 15/14/5 48/15/5
f 70/1/6 23/3/6 42/16/6
f 21/17/7 36/18/7 24/12/7
f 23/8/8 10/19/8 20/9/8
f 37/20/9 48/7/9 20/9/9
f 38/21/10 2/22/10 60/23/10
f 42/16/11 23/3/11 18/24/11
f 61/25/12 39/26/12 60/23/12
f 56/27/13 21/28/13 47/29/13
f 60/23/14 2/22/14 35/30/14
f 21/17/15 24/12/15 16/13/15
f 46/31/16 88/32/16 87/33/16
f 87/34/17 86/35/17 34/36/17
f 26/37/18 22/38/18 34/39/18
f 1/40/19 29/41/19 38/42/19
f 30/10/20 24/12/20 2/43/20
f 3/44/21 25/45/21 31/46/21
f 31/46/22 5/47/22 3/44/22
f 8/48/23 3/44/23 5/47/23
f 4/49/24 3/44/24 8/48/24
f 49/50/25 1/40/25 38/42/25
f 75/51/26 7/52/26 6/53/26
f 32/54/27 86/35/27 81/55/27
f 86/35/28 87/34/28 81/55/28
f 60/23/29 35/30/29 61/25/29
f 5/56/30 31/57/30 28/58/30
f 86/35/31 32/54/31 31/57/31
f 32/54/32 81/55/32 28/58/32
f 4/49/33 8/48/33 7/52/33
f 82/59/34 85/60/34 83/61/34
f 49/62/35 38/21/35 54/63/35
f 26/37/36 1/40/36 49/50/36
f 86/64/37 25/45/37 26/37/37
f 18/5/38 4/49/38 75/51/38
f 75/65/39 80/66/39 55/67/39
f 82/59/40 88/68/40 85/60/40
f 11/69/41 4/49/41 33/70/41
f 47/29/42 48/7/42 37/20/42
f 20/9/43 56/27/43 47/29/43
f 30/10/44 29/41/44 13/11/44
f 17/71/45 83/61/45 41/72/45
f 41/72/46 19/73/46 17/71/46
f 7/52/47 75/51/47 4/49/47
f 85/60/48 78/74/48 83/61/48
f 14/4/49 11/69/49 33/70/49
f 11/69/50 14/4/50 12/75/50
f 12/75/51 27/76/51 3/44/51
f 4/49/52 11/69/52 3/44/52
f 12/75/53 3/44/53 11/69/53
f 35/77/54 43/78/54 53/79/54
f 36/18/55 43/80/55 35/81/55
f 35/77/56 53/79/56 61/82/56
f 38/42/57 30/10/57 2/43/57
f 21/17/58 16/13/58 48/15/58
f 14/4/59 15/14/59 12/75/59
f 18/24/60 55/67/60 74/83/60
f 87/34/61 88/68/61 82/59/61
f 17/71/62 6/84/62 5/56/62
f 42/16/63 44/85/63 70/1/63
f 26/37/64 34/39/64 86/64/64
f 15/14/65 16/13/65 12/75/65
f 13/11/66 12/75/66 16/13/66
f 21/28/67 56/27/67 43/78/67
f 19/86/68 41/87/68 75/65/68
f 24/12/69 13/11/69 16/13/69
f 41/87/70 80/66/70 75/65/70
f 19/88/71 75/51/71 6/53/71
f 43/80/72 36/18/72 21/17/72
f 24/12/73 36/18/73 2/43/73
f 20/9/74 47/29/74 37/20/74
f 18/5/75 14/4/75 33/70/75
f 49/62/76 54/63/76 46/31/76
f 6/53/77 8/48/77 5/47/77
f 9/89/78 5/56/78 28/58/78
f 25/45/79 27/76/79 26/37/79
f 2/43/80 36/18/80 35/81/80
f 23/6/81 48/15/81 14/4/81
f 21/28/82 48/7/82 47/29/82
f 6/53/83 17/90/83 19/88/83
f 17/71/84 5/56/84 9/89/84
f 29/41/85 1/40/85 13/11/85
f 86/64/86 31/46/86 25/45/86
f 1/40/87 26/37/87 27/76/87
f 56/27/88 63/91/88 53/79/88
f 25/45/89 3/44/89 27/76/89
f 42/16/90 18/24/90 74/83/90
f 7/52/91 8/48/91 6/53/91
f 28/58/92 31/57/92 32/54/92
f 14/4/93 48/15/93 15/14/93
f 34/92/94 22/93/94 46/31/94
f 64/94/95 50/95/95 45/96/95
f 13/11/96 27/76/96 12/75/96
f 29/41/97 30/10/97 38/42/97
f 18/24/98 75/65/98 55/67/98
f 17/71/99 9/89/99 83/61/99
f 63/97/100 39/26/100 61/25/100
f 63/91/101 61/82/101 53/79/101
f 56/27/102 53/79/102 43/78/102
f 18/5/103 33/70/103 4/49/103
f 13/11/104 1/40/104 27/76/104
f 22/38/105 26/37/105 49/50/105
f 78/74/106 77/98/106 83/61/106
f 77/99/107 76/100/107 83/101/107
f 81/55/108 83/61/108 9/89/108
f 81/55/109 87/34/109 82/59/109
f 83/61/110 81/55/110 82/59/110
f 63/91/111 56/27/111 68/102/111
f 41/87/112 83/101/112 80/66/112
f 72/103/113 77/98/113 78/74/113
f 62/104/114 73/105/114 59/106/114
f 76/100/115 44/85/115 55/67/115
f 44/85/116 76/100/116 71/107/116
f 76/100/117 77/99/117 71/107/117
f 44/85/118 71/107/118 73/105/118
f 54/63/119 39/26/119 52/108/119
f 46/31/120 54/63/120 52/108/120
f 83/101/121 76/100/121 80/66/121
f 76/100/122 55/67/122 80/66/122
f 55/67/123 44/85/123 74/83/123
f 70/1/124 44/85/124 62/104/124
f 39/26/125 63/97/125 52/108/125
f 73/105/126 62/104/126 44/85/126
f 73/105/127 69/109/127 59/106/127
f 77/99/128 72/110/128 71/107/128
f 57/111/129 71/107/129 72/110/129
f 69/109/130 71/107/130 57/111/130
f 73/105/131 71/107/131 69/109/131
f 69/109/132 57/111/132 58/112/132
f 65/113/133 64/114/133 45/115/133
f 42/16/134 74/83/134 44/85/134
f 45/116/135 50/117/135 66/118/135
f 68/102/136 56/27/136 40/119/136
f 50/95/137 64/94/137 68/102/137
f 50/95/138 68/102/138 66/120/138
f 64/94/139 63/91/139 68/102/139
f 62/121/140 59/122/140 40/119/140
f 46/31/141 52/108/141 88/32/141
f 40/119/142 56/27/142 20/9/142
f 10/19/143 62/121/143 20/9/143
f 62/104/144 10/2/144 70/1/144
f 68/102/145 40/119/145 66/120/145
f 20/9/146 62/121/146 40/119/146
f 66/120/147 40/119/147 59/122/147
f 51/123/148 88/32/148 52/108/148
f 67/124/149 51/123/149 52/108/149
f 60/23/150 39/26/150 38/21/150
f 65/113/151 63/97/151 64/114/151
f 52/108/152 65/113/152 67/124/152
f 84/125/153 89/126/153 51/127/153
f 54/63/154 38/21/154 39/26/154
f 49/62/155 46/31/155 22/93/155
f 65/113/156 52/108/156 63/97/156
f 90/128/157 57/129/157 72/130/157
f 45/116/158 84/125/158 67/131/158
f 58/132/159 79/133/159 84/125/159
f 59/106/160 69/109/160 58/112/160
f 84/125/161 45/116/161 66/118/161
f 58/132/162 84/125/162 66/118/162
f 57/129/163 90/128/163 58/132/163
f 45/115/164 67/124/164 65/113/164
f 66/118/165 59/134/165 58/132/165
f 58/132/166 90/128/166 79/133/166
f 90/135/167 72/103/167 78/74/167
f 79/136/168 90/135/168 78/74/168
f 85/60/169 84/137/169 79/136/169
f 85/60/170 79/136/170 78/74/170
f 84/125/171 51/127/171 67/131/171
f 9/89/172 28/58/172 81/55/172
f 46/31/173 87/33/173 34/92/173
f 89/138/174 84/137/174 85/60/174
f 85/60/175 88/68/175 89/138/175
f 89/139/176 88/32/176 51/123/176
